<svg xmlns="http://www.w3.org/2000/svg" viewBox="0 0 1109.44 217.44"><defs><style>.cls-1{fill:#fff;}.cls-2{fill:#a5a4a4;}</style></defs><title>Ресурс 1</title><g id="Слой_2" data-name="Слой 2"><g id="Layer_1" data-name="Layer 1"><path class="cls-1" d="M423.47,66.74l42.28,70.09H436.17L405.3,85.39l-10,10.44v41h-26V24.29h26V62.88c3.22-3.7,6.43-7.24,6.43-7.24L432,24.29h32.47Z"/><path class="cls-1" d="M515.74,92.46h-14v44.37H475.71V24.29h49c26.84,0,42.12,12.06,42.12,33.12,0,17.2-9.81,26.53-24.44,32.8l26.37,46.62h-28Zm-14-21.22h25.56c10,0,14.31-5.31,14.31-12.86s-4.34-12.86-14.31-12.86H501.76Z"/><path class="cls-1" d="M633.9,136.83h-26V94.07L570.4,24.29h29.26l18,35.85s1.76,4.51,3.21,8.36c1.45-3.85,3.22-8.36,3.22-8.36l18-35.85h29.1L633.9,94.07Z"/><path class="cls-1" d="M680.36,24.29h52.57c26.69,0,44.05,12.38,44.05,37.14s-17.36,37.14-44.05,37.14H706.41v38.26h-26Zm26,52.74h25.88c13.34,0,18.65-6.6,18.65-15.6s-5.31-15.59-18.65-15.59H706.41Z"/><path class="cls-1" d="M784.21,24.29h92.6V47.12H843.54v89.71h-26V47.12H784.21Z"/><path class="cls-1" d="M936.78,139.08c-34.41,0-59.16-25.88-59.16-58.52S902.37,22,936.78,22s59.16,25.89,59.16,58.52S971.18,139.08,936.78,139.08Zm33.11-58.52c0-21.54-14.95-34.4-33.11-34.4S903.66,59,903.66,80.56s15,34.41,33.12,34.41S969.89,102.1,969.89,80.56Z"/><path class="cls-1" d="M1012,24.29h26l41.15,63.83s3.86,6.43,4.82,8.84V24.29h25.41V136.83h-26l-41.15-64.31s-3.86-6.43-4.83-8.84v73.15H1012Z"/><path class="cls-1" d="M366.61,162.06h26.83v6.62H383.8v26h-7.55v-26h-9.64Z"/><path class="cls-1" d="M397.12,162.06h23.8v6.62H404.67v5.91h14.95V181H404.67v7h16.39v6.61H397.12Z"/><path class="cls-1" d="M455.91,186.52c-3.77,5.92-8,8.8-15.05,8.8-9.87,0-17-6.8-17-16.95s7.41-17,17.15-17c7.17,0,12.39,3.63,14.58,8.57l-6.29,4.38c-1.77-3.77-4.66-6-8.52-6-5.08,0-9.37,3.82-9.37,10,0,6,4.24,10,9.41,10,4.2,0,6.8-2.24,8.95-6.2Z"/><path class="cls-1" d="M459.91,162.06h7.55v12.49H480V162.06h7.55v32.61H480V181.53H467.46v13.14h-7.55Z"/><path class="cls-1" d="M493.64,162.06h7.55l11.93,18.5s1.11,1.86,1.39,2.56V162.06h7.36v32.61h-7.54L502.4,176s-1.12-1.87-1.4-2.57v21.2h-7.36Z"/><path class="cls-1" d="M543.67,195.32a17,17,0,1,1,17.15-16.95A16.68,16.68,0,0,1,543.67,195.32Zm9.6-16.95c0-6.25-4.33-10-9.6-10s-9.59,3.72-9.59,10,4.33,10,9.59,10S553.27,184.61,553.27,178.37Z"/><path class="cls-1" d="M589.37,194.67h-23.9V162.06H573v25.62h16.35Z"/><path class="cls-1" d="M607.07,195.32a17,17,0,1,1,17.15-16.95A16.68,16.68,0,0,1,607.07,195.32Zm9.6-16.95c0-6.25-4.33-10-9.6-10s-9.59,3.72-9.59,10,4.33,10,9.59,10S616.67,184.61,616.67,178.37Z"/><path class="cls-1" d="M654.08,190.71c-2,2.75-5.08,4.61-9.83,4.61-9.37,0-16.21-7-16.21-16.95s7.68-17,17.23-17c6.57,0,12,3.17,14.49,8l-5.77,4.2c-2.1-3.54-5-5.55-8.86-5.55-5.35,0-9.55,4.24-9.55,10.35s4.34,10.34,9.13,10.34c4.62,0,7.46-2.75,8.06-6.06H642.9V177h17.28v17.7h-4.8Z"/><path class="cls-1" d="M681.14,194.67H673.6V182.28l-10.86-20.22h8.48l5.22,10.39s.51,1.3.93,2.42c.42-1.12.93-2.42.93-2.42l5.22-10.39H692l-10.81,20.22Z"/><path class="cls-1" d="M243.32,30.7c-15.17.67-26.51,2.45-46.73,5.47-31.52,4.71-41.06,3-40.87-7.06.28-14.13,32.69-18.73,69.74-9,4.8,1.27,5.41,0,1.24-2.67a110.64,110.64,0,0,0-17-9C162.09-11.69,105.88,5.16,77.22,48.2A108.78,108.78,0,0,0,91.74,186.65h0c-13.46-22.18,1.35-54.92,35.31-71.53,40.08-19.61,78.8-9.22,90.74,13.82,12.42,24,4.88,56.64-39.14,76.74-12.87,5.88-27.81,6.21-38.7,5.3-8.86-.74-9.06.47-.47,2.78A108.75,108.75,0,0,0,243.32,30.7Z"/><path class="cls-2" d="M149.67,47.23C57.66,74-8.91,123.25,1,157.2c6.29,21.59,42,31.8,90.81,29.49a108.62,108.62,0,0,1-28.59-47.56v0C57,117.82,98.7,87,156.35,70.19S265.76,57.05,272,78.32h0a108.68,108.68,0,0,1,1.41,55.51c42.44-24.25,67.08-52,60.79-73.62C324.28,26.26,241.68,20.45,149.67,47.23Z"/></g></g></svg>